<svg id="Layer_1" data-name="Layer 1" xmlns="http://www.w3.org/2000/svg" xmlns:xlink="http://www.w3.org/1999/xlink" viewBox="0 0 1024 1024"><defs><style>.cls-1{fill:url(#linear-gradient);}.cls-2{fill:#fab99c;}.cls-3{fill:none;stroke:#231f20;stroke-linecap:round;stroke-linejoin:round;stroke-width:43.13px;}.cls-4{fill:#231f20;}</style><linearGradient id="linear-gradient" x1="518.41" y1="135.64" x2="503.73" y2="977.14" gradientUnits="userSpaceOnUse"><stop offset="0.38" stop-color="#faad63"/><stop offset="0.68" stop-color="#f37773"/></linearGradient></defs><g id="full"><g id="colours"><path id="hair" class="cls-1" d="M199.36,971.74h0c44-72.26,116.36-122.94,199.48-138.78,34.64-6.6,71.74-9.83,111.75-9.83,77.83,0,144,13.42,203.92,37,48.71,19.19,86.94,58.65,102.81,108.55a120.27,120.27,0,0,1,3.47,13.14c0-54.08,49.71-95.52,111.37-163.76s16.47-134.88-46-210.92c-44.59-57.88-77.32-155.46-90-216.69-5.15-24.79-13.72-64.33-14.79-97.35C780.13,254.55,750.48,210,685,168.68c-87.11-55-168.19-22.38-168.19-22.38-67.47-23.43-160.69-5.34-208.45,35.51-40.44,34.6-76.87,93.18-86.3,201q-.27,3.36-.58,6.67C211.7,494.08,165.74,591.92,93.14,667.88c-3.63,3.79-6.87,7.28-9.55,10.37C45,722.66,32.46,789.75,117.68,853.67s88.5,93.47,76.7,118.07"/><g id="face"><path id="chin_right_ear" data-name="chin + right ear" class="cls-2" d="M796.51,597.25c-50.7,20-69.61,14.08-69.61,14.08C682.53,710,594.41,755.67,516.34,752.22c-86.81-3.85-130.87-45-154.38-81.26-7.9-12.2-32.36-62.7-36.06-103.2,15.84-77.56-2.45-190.47,35.94-262,42.7-79.54,132.19-56.46,154.38-18.91,28-39.93,66.33-44.67,109.91-26.18,88.78,37.63,34.45,128,75.89,171.27,22.33,23.35,53.68,29,53.68,29,18-13.32,53.63-24,83-.71C865.23,481.2,866.91,569.47,796.51,597.25Z"/><path id="left_ear" data-name="left ear" class="cls-2" d="M263.06,453.63c-32.37-17.4-44.65-15.3-67.74,7.28-31,30.36-10.95,125.73,47.26,139.18C281.31,555.89,290.45,477.18,263.06,453.63Z"/></g></g><g id="lines"><g id="face-2" data-name="face"><path id="chin_right_ear-2" data-name="chin + right ear" class="cls-3" d="M364.83,669c29.12,32,67.57,77.42,154.38,81.26,110.49,4.9,241.06-88.71,239.36-291.3,18-13.32,53.63-24,83-.71,26.51,21,27.5,107.56-42.2,137.05"/><path id="left_ear-2" data-name="left ear" class="cls-3" d="M245.44,598.08c-74.39-30-78.3-108.81-47.25-139.17,23.09-22.58,49.45-18.16,67.73-7.29"/></g><g id="hair-2" data-name="hair"><g id="hairline"><path class="cls-3" d="M705,427.6C647.49,410.72,717.9,294,629.13,256.32c-43.59-18.48-81.89-13.74-109.92,26.2"/><path class="cls-3" d="M210.46,754.66c1.22.5,87.31-81.08,114.7-175.9,22.33-77.33-1.33-200.95,39.67-277.34C407.54,221.88,497,245,519.21,282.52"/></g><path id="left_long" data-name="left long" class="cls-3" d="M156.13,609.3C136.82,633,106.49,661,92.21,677.48,53.64,721.89,41.08,789,126.3,852.9S214.79,946.37,203,971"/><g id="crown"><path class="cls-3" d="M525.44,145.53C458,122.09,364.75,140.19,317,181c-40.44,34.6-76.87,93.18-86.3,201"/><path class="cls-3" d="M812.36,389.31c-13.09-21.67-21.3-63.92-22.37-96.94-1.24-38.59-30.89-83.1-96.36-124.46-87.11-55-168.19-22.38-168.19-22.38"/></g><path id="right_long" data-name="right long" class="cls-3" d="M829.41,981.09c-1.7-54.06,49.71-95.52,111.37-163.76s16.46-134.88-46-210.92q-4.34-5.26-8.41-11.16"/><path id="neck" class="cls-3" d="M256.27,891.68c76.63-40.91,158-69.32,262.94-69.32,108.35,0,194.09,26,271.85,69.32"/><g id="tufts"><path class="cls-4" d="M527.54,109a49.69,49.69,0,0,0-8.84-17.56,83.56,83.56,0,0,0-13.28-13.56A129.19,129.19,0,0,0,490.05,67c-2.67-1.63-5.39-3.17-8.12-4.6-1.36-.72-2.73-1.4-4.09-2.05-.68-.32-1.35-.63-2-.92l-1-.41c-.28-.09-.7-.3-.77-.21a21.57,21.57,0,0,1,27.49-33.24,16.87,16.87,0,0,1,1.14,1.41l.9,1.24c.58.82,1.14,1.63,1.69,2.44q1.62,2.43,3.12,4.86c2,3.25,3.9,6.52,5.68,9.85a155.62,155.62,0,0,1,9.25,20.55,99.59,99.59,0,0,1,5.4,21.68,63.07,63.07,0,0,1,.44,11A49.35,49.35,0,0,1,527.54,109Z"/><path class="cls-4" d="M569,97a1.11,1.11,0,0,0,.26-.07l0,0s.06-.07,0-.09,0-.12-.09-.16a1.48,1.48,0,0,0-.35-.28,8,8,0,0,0-1-.48,18.24,18.24,0,0,0-2.3-.77,31.33,31.33,0,0,0-5.17-.91,35.66,35.66,0,0,0-11.19.72,36.57,36.57,0,0,0-11.39,4.81A46,46,0,0,0,527.54,109a51.5,51.5,0,0,1,1.26-15.15,52.63,52.63,0,0,1,6.51-15.39A62.29,62.29,0,0,1,547,64.76,64.17,64.17,0,0,1,554.45,59c1.34-.89,2.74-1.74,4.23-2.55.74-.4,1.51-.8,2.34-1.19.41-.19.85-.38,1.31-.57.21-.1.5-.2.75-.29l.45-.15.25-.07a4.56,4.56,0,0,1,.47-.1A21.56,21.56,0,1,1,569,97Z"/></g></g></g></g></svg>